# Blender 4.1.1
# www.blender.org
mtllib asteroid_1.mtl
o rock
v -0.968769 -0.703797 0.845169
v -0.404309 -1.145168 -0.838920
v -0.686591 0.745208 -0.485467
v 1.034417 0.583545 0.666698
v 0.675021 0.760558 -1.023751
v 1.144889 -1.046526 -0.201336
v 1.085663 -0.853684 0.799280
v -0.031684 0.924847 0.058957
v -0.960950 -1.167166 -0.178720
v -1.149888 0.065863 0.036607
v -0.058596 0.083018 1.107882
v -0.052158 0.882904 -1.043728
v 0.364315 -1.263017 -0.639475
v 0.207061 -0.992319 0.951299
v 1.259372 -1.160855 0.302792
v 1.215230 0.935312 -0.392188
v 1.358160 -0.303050 0.128800
v 1.300823 -0.257696 1.006446
v 0.111117 -0.232313 -1.147614
v -0.581944 0.418611 0.515893
v -0.825623 -0.043815 0.712450
v 0.050514 0.691360 0.757462
v -0.793870 0.639464 0.043056
v 0.540629 -0.356620 1.245742
v -0.121233 -0.521979 1.184094
v 0.866967 -0.651034 1.128109
v 0.784570 0.102445 1.193990
v -0.530470 -1.208819 0.503125
v -0.345662 -1.421103 -0.451543
v 0.132999 -1.353031 0.078355
v 0.743455 -1.232727 0.594483
v 0.785232 -1.396935 -0.181440
v 0.481548 1.245266 -0.495872
v -0.142978 1.106387 -0.571178
v 0.767322 1.092255 0.019358
v 0.730996 1.196545 -0.869186
v 1.691760 -0.548614 0.520486
v 1.510598 -0.807760 0.136601
v 1.523296 -0.048322 0.655660
v 1.466161 -0.747104 0.715833
v 0.203063 -0.843062 -0.986593
v 0.875030 0.388970 -0.892962
v 0.921992 -0.242393 -0.668446
v 1.009601 -0.781641 -0.436501
v 1.391217 0.351463 -0.043703
v -1.217877 -0.565581 0.002647
v -0.806328 0.406218 -0.690867
v -0.743464 -0.149484 -0.744202
v -0.667033 -0.762207 -0.834260
v 0.037053 0.388407 -1.193866
vn -0.2217 0.8987 -0.3784
vn 0.3854 -0.7183 0.5792
vn -0.9108 0.1774 0.3729
vn 0.8665 -0.1242 -0.4835
vn -0.4724 0.5194 0.7121
vn 0.0059 0.8763 0.4817
vn -0.2047 -0.9631 0.1745
vn -0.8820 0.0383 -0.4697
vn -0.4235 0.8789 0.2194
vn 0.7525 0.0747 -0.6544
vn 0.7372 0.5934 0.3230
vn 0.3058 -0.0497 0.9508
vn 0.7893 -0.6014 0.1235
vn -0.5822 0.6378 -0.5043
vn 0.0473 -0.9929 -0.1093
vn 0.7764 -0.0092 0.6301
vn 0.2278 -0.6841 0.6929
vn 0.5830 0.4562 0.6723
vn 0.1232 -0.9695 0.2118
vn -0.4284 -0.0202 -0.9034
vn 0.4959 -0.2064 -0.8435
vn 0.8494 -0.0895 -0.5202
vn 0.4619 -0.4354 0.7727
vn 0.7305 0.1499 -0.6663
vn 0.8109 0.3209 -0.4894
vn -0.5086 0.0922 -0.8560
vn -0.7547 -0.5998 0.2657
vn 0.0716 -0.7133 -0.6972
vn 0.3763 0.9218 0.0928
vn -0.6018 -0.5998 -0.5274
vn -0.4381 0.2154 0.8727
vn 0.5267 -0.4822 -0.7000
vn -0.0033 -0.4189 0.9080
vn 0.6774 -0.6691 -0.3056
vn 0.0320 0.6206 0.7834
vn 0.0786 0.3128 -0.9466
vn -0.1879 -0.2178 -0.9577
vn 0.5500 -0.3224 -0.7704
vn 0.9419 0.3355 0.0139
vn -0.2060 0.9178 0.3395
vn 0.3371 -0.0744 -0.9385
vn -0.0449 -0.9219 0.3848
vn -0.8646 0.4829 -0.1388
vn -0.7181 0.5038 0.4802
vn -0.8419 -0.1132 -0.5276
vn -0.4030 0.8146 0.4172
vn -0.1150 0.1512 0.9818
vn -0.2197 -0.6177 0.7551
s 0
f 12//1 34//1 33//1 36//1
f 15//2 40//2 7//2 31//2
f 10//3 46//3 1//3 21//3
f 45//4 17//4 44//4 43//4
f 20//5 21//5 11//5 22//5
f 35//6 8//6 22//6 4//6
f 28//7 9//7 29//7 30//7
f 47//8 48//8 46//8 10//8
f 8//9 34//9 3//9 23//9
f 17//10 38//10 6//10 44//10
f 35//11 4//11 45//11 16//11
f 24//12 26//12 18//12 27//12
f 37//13 40//13 15//13 38//13
f 12//14 47//14 3//14 34//14
f 32//15 30//15 29//15 13//15
f 40//16 37//16 39//16 18//16
f 31//17 7//17 26//17 14//17
f 18//18 39//18 4//18 27//18
f 32//19 15//19 31//19 30//19
f 50//20 19//20 49//20 48//20
f 41//21 19//21 42//21 43//21
f 43//22 42//22 16//22 45//22
f 18//23 26//23 7//23 40//23
f 16//24 42//24 5//24 36//24
f 37//25 38//25 17//25 39//25
f 48//26 47//26 12//26 50//26
f 46//27 9//27 28//27 1//27
f 29//28 2//28 41//28 13//28
f 33//29 35//29 16//29 36//29
f 49//30 2//30 29//30 9//30
f 21//31 1//31 25//31 11//31
f 44//32 6//32 32//32 13//32
f 24//33 25//33 14//33 26//33
f 6//34 38//34 15//34 32//34
f 11//35 27//35 4//35 22//35
f 50//36 12//36 36//36 5//36
f 19//37 41//37 2//37 49//37
f 43//38 44//38 13//38 41//38
f 45//39 4//39 39//39 17//39
f 35//40 33//40 34//40 8//40
f 50//41 5//41 42//41 19//41
f 30//42 31//42 14//42 28//42
f 23//43 3//43 47//43 10//43
f 10//44 21//44 20//44 23//44
f 48//45 49//45 9//45 46//45
f 20//46 22//46 8//46 23//46
f 24//47 27//47 11//47 25//47
f 25//48 1//48 28//48 14//48
